<svg height="11" viewBox="0 0 11 11" width="11" xmlns="http://www.w3.org/2000/svg"><path d="m6.375 3.9375-.4375-.4375.4375-.4375h.4375l2.1875-2.1875-.875-.875-2.1875 2.1875v.4375l-.4375.4375-.4375-.4375v-.4375l-2.1875-2.1875-.875.875 2.1875 2.1875h.4375l.4375.4375-.4375.4375h-.4375l-2.1875 2.1875.875.875 2.1875-2.1875v-.4375l.4375-.4375.4375.4375v.4375l2.1875 2.1875.875-.875-2.1875-2.1875zm2.125 6.0625h-.5l-1-2.5-1.5-1.5-1.5 1.5-1 2.5h-.5c-.2761 0-.5.2238-.5.5 0 .2761.2239.5.5.5h6c.2761 0 .5-.2239.5-.5 0-.2762-.2239-.5-.5-.5zm-2.5-.0283c0 .0156-.0126.0283-.0283.0283h-.9434c-.0157 0-.0283-.0127-.0283-.0283v-.972c0-.2759.2238-.4997.4998-.4997.2763 0 .5002.2239.5002.5002z"/></svg>